<svg width="53" height="36" viewBox="0 0 53 36" fill="none" xmlns="http://www.w3.org/2000/svg">
<path d="M0.92 4.224C0.92 3.136 1.304 2.224 2.072 1.488C2.84 0.719998 3.752 0.335999 4.808 0.335999C5.864 0.335999 6.76 0.719998 7.496 1.488C8.264 2.224 8.648 3.136 8.648 4.224C8.648 5.312 8.264 6.224 7.496 6.96C6.76 7.696 5.864 8.064 4.808 8.064C3.752 8.064 2.84 7.696 2.072 6.96C1.304 6.224 0.92 5.312 0.92 4.224ZM1.64 11.616H2.168C3.832 11.616 5.224 12.064 6.344 12.96C7.496 13.856 8.072 15.28 8.072 17.232V36H7.784C7.048 36 6.312 35.904 5.576 35.712C4.872 35.52 4.216 35.216 3.608 34.8C3.032 34.352 2.552 33.792 2.168 33.12C1.816 32.416 1.64 31.552 1.64 30.528V11.616ZM19.4045 36H18.8765C18.0445 36 17.2605 35.872 16.5245 35.616C15.8205 35.36 15.1965 35.008 14.6525 34.56C14.1405 34.112 13.7245 33.568 13.4045 32.928C13.1165 32.288 12.9725 31.584 12.9725 30.816V7.2C12.9725 6.016 13.1165 5.04 13.4045 4.272C13.7245 3.472 14.1405 2.848 14.6525 2.4C15.1965 1.952 15.8205 1.632 16.5245 1.44C17.2285 1.248 17.9965 1.152 18.8285 1.152H19.4045V36ZM30.3485 29.664C30.3485 31.872 29.8365 33.488 28.8125 34.512C27.7885 35.504 26.3165 36 24.3965 36C23.1805 36 22.1405 35.664 21.2765 34.992C20.4125 34.32 19.9805 33.472 19.9805 32.448C19.9805 31.904 20.0925 31.408 20.3165 30.96C20.7325 31.312 21.2285 31.488 21.8045 31.488C22.4445 31.488 22.9565 31.232 23.3405 30.72C23.7245 30.208 23.9165 29.424 23.9165 28.368V18.72C23.9165 18.016 23.7725 17.424 23.4845 16.944C23.2285 16.464 22.7325 16.192 21.9965 16.128H21.8045C21.2285 16.128 20.7165 16.304 20.2685 16.656C20.1405 16.4 20.0605 16.16 20.0285 15.936C19.9965 15.68 19.9805 15.424 19.9805 15.168C19.9805 14.144 20.4125 13.296 21.2765 12.624C22.1405 11.952 23.1805 11.616 24.3965 11.616C26.3165 11.616 27.7885 12.112 28.8125 13.104C29.8365 14.096 30.3485 15.36 30.3485 16.896V29.664ZM41.1076 28.416C41.1076 28.8 41.1236 29.168 41.1556 29.52C41.2196 29.872 41.3156 30.192 41.4436 30.48C41.6036 30.736 41.8116 30.96 42.0676 31.152C42.3556 31.312 42.7396 31.392 43.2196 31.392C43.4756 31.392 43.7316 31.36 43.9876 31.296C44.2756 31.2 44.5316 31.056 44.7556 30.864C44.8836 31.12 44.9636 31.376 44.9956 31.632C45.0276 31.856 45.0436 32.096 45.0436 32.352C45.0436 33.376 44.6276 34.24 43.7956 34.944C42.9636 35.648 41.8276 36 40.3876 36C38.6596 36 37.2676 35.488 36.2116 34.464C35.1876 33.44 34.6756 31.872 34.6756 29.76V11.664H34.9636C36.8836 11.664 38.3876 12.128 39.4756 13.056C40.5636 13.952 41.1076 15.408 41.1076 17.424V28.416ZM52.0516 35.904H51.5236C49.8596 35.904 48.4516 35.472 47.2996 34.608C46.1796 33.712 45.6196 32.272 45.6196 30.288V11.664H45.9076C46.6116 11.664 47.3316 11.76 48.0676 11.952C48.8036 12.144 49.4596 12.464 50.0356 12.912C50.6436 13.328 51.1236 13.888 51.4756 14.592C51.8596 15.296 52.0516 16.144 52.0516 17.136V35.904Z" fill="black"/>
</svg>
